<svg xmlns="http://www.w3.org/2000/svg" width="288.986" height="48" viewBox="0 0 288.986 48"><g transform="translate(-70 -48.511)"><g transform="translate(70 48.511)"><path d="M102.075,124.195c-1.571,7.478-7.1,11.963-15.252,11.963C77.1,136.158,70,129.579,70,119.41c0-10.317,7.1-17.72,16.524-17.72,10.392,0,15.7,7.4,15.7,16.3v2.393H76.206c.3,6.506,4.86,10.917,10.692,10.917,5.458,0,8.747-2.617,10.019-7.7Zm-6.206-7.626c-.149-5.309-3.214-10.168-9.345-10.168-5.907,0-9.5,4.71-10.169,10.168Z" transform="translate(-70 -88.158)"/><path d="M228.115,135.261H221.91V102.588h6.205v5.831c1.57-3.962,5.981-6.729,10.841-6.729,8.523,0,11.963,5.683,11.963,13.309v20.262h-6.206V115.523c0-5.458-2.617-8.9-7.776-8.9-4.934,0-8.822,3.887-8.822,9.869Z" transform="translate(-183.253 -88.158)"/><path d="M363.4,123.9c.673,5.01,4.112,7.777,9.794,7.777,4.486,0,7.551-1.645,7.551-4.936,0-3.065-2.167-4.112-6.205-4.859l-5.457-.9c-6.206-1.047-9.944-3.663-9.944-9.271,0-5.982,5.085-10.02,12.711-10.02,8.6,0,13.682,4.038,14.206,11.59l-4.934.3c-.748-5.084-3.888-7.4-9.346-7.4-4.113,0-6.8,1.87-6.8,4.86,0,2.691,1.645,4.038,5.009,4.635l6.131.972c6.58,1.122,10.467,3.588,10.467,9.495,0,6.5-5.757,10.019-13.383,10.019-8.15,0-14.355-3.813-14.953-11.887Z" transform="translate(-284.894 -88.158)"/><path d="M503.83,136.158c-9.57,0-16.6-7.028-16.6-17.2s7.028-17.271,16.6-17.271c9.645,0,16.748,7.1,16.748,17.271S513.475,136.158,503.83,136.158Zm0-4.785c6.654,0,10.392-5.158,10.392-12.411,0-7.327-3.738-12.411-10.392-12.411-6.58,0-10.243,5.084-10.243,12.411C493.587,126.214,497.251,131.372,503.83,131.372Z" transform="translate(-381.059 -88.158)"/><path d="M633.266,204.234h7.477v7.476h-7.477Z" transform="translate(-489.931 -164.607)"/><path d="M695.274,95.614h-4.71v-47.1h6.205V69.82a12.119,12.119,0,0,1,11.739-7.777c9.645,0,14.953,7.627,14.953,17.271s-5.308,17.2-15.028,17.2c-6.056,0-10.318-3.588-11.812-7.7Zm1.346-15.4c0,7.178,4.56,11.364,10.467,11.364,6.43,0,9.944-4.785,9.944-12.262s-3.514-12.261-9.944-12.261c-5.906,0-10.467,4.187-10.467,11.289Z" transform="translate(-532.649 -48.511)"/><path d="M866,105.219H872.2v32.673H866v-5.757a11.34,11.34,0,0,1-10.692,6.654c-8.523,0-11.664-5.606-11.664-13.233V105.219h6.205v19.738c0,5.458,2.393,8.972,7.552,8.972,4.86,0,8.6-3.888,8.6-9.944Z" transform="translate(-646.774 -90.788)"/><path d="M1008.9,108.794a9.435,9.435,0,0,0-5.084-1.346c-4.71,0-8.224,4.263-8.224,10.542v17.271h-6.205V102.588h6.205v6.654c1.2-3.738,4.561-7.552,9.271-7.552a6.767,6.767,0,0,1,4.636,1.5Z" transform="translate(-755.428 -88.158)"/><path d="M1091.2,136.158c-9.57,0-16.6-7.028-16.6-17.2s7.028-17.271,16.6-17.271c9.645,0,16.748,7.1,16.748,17.271S1100.841,136.158,1091.2,136.158Zm0-4.785c6.654,0,10.392-5.158,10.392-12.411,0-7.327-3.738-12.411-10.392-12.411-6.58,0-10.243,5.084-10.243,12.411C1080.953,126.214,1084.617,131.372,1091.2,131.372Z" transform="translate(-818.958 -88.158)"/></g><g transform="translate(198.071 51.386)"><path d="M573.283,59.809h14.931v5.532H573.283Z" transform="translate(-573.283 -59.809)"/></g></g></svg>